<?xml version="1.0" encoding="UTF-8"?>
<svg xmlns="http://www.w3.org/2000/svg" xmlns:xlink="http://www.w3.org/1999/xlink" viewBox="0 369 718.67 351">
  <g id="icon">
    <defs>
      <clipPath id="clip1">
        <path d="M 653 230 L 718.671875 230 L 718.671875 351 L 653 351 Z M 653 230 "/>
      </clipPath>
    </defs>
    <g stroke="none">
      <path fill="var(--color1)" d="M 54.207031 230.136719 L 76.808594 230.136719 L 52.867188 351 L 23.941406 351 L 0 230.136719 L 22.792969 230.136719 L 38.308594 327.824219"/>
      <path fill="var(--color2)" d="M 107.453125 351 L 129.480469 351 L 129.480469 230.136719 L 107.453125 230.136719 Z M 107.453125 351"/>
      <path fill="var(--color3)" d="M 190.203125 246.992188 L 190.203125 287.597656 L 206.101563 287.597656 C 208.140625 287.597656 209.546875 287.25 210.3125 286.546875 C 211.078125 285.84375 211.464844 284.472656 211.464844 282.425781 L 211.464844 252.164063 C 211.464844 250.121094 211.078125 248.746094 210.3125 248.042969 C 209.546875 247.34375 208.140625 246.992188 206.101563 246.992188 Z M 190.203125 303.878906 L 190.203125 351 L 168.175781 351 L 168.175781 230.136719 L 212.609375 230.136719 C 226.527344 230.136719 233.492188 236.457031 233.492188 249.097656 L 233.492188 284.914063 C 233.492188 295.386719 228.828125 301.519531 219.507813 303.304688 L 239.621094 351 L 215.867188 351 L 197.480469 303.878906"/>
      <path fill="var(--color4)" d="M 325.8125 230.136719 L 325.8125 246.992188 L 304.550781 246.992188 L 304.550781 351 L 282.523438 351 L 282.523438 246.992188 L 261.453125 246.992188 L 261.453125 230.136719"/>
      <path fill="var(--color5)" d="M 398.027344 230.136719 L 420.054688 230.136719 L 420.054688 332.035156 C 420.054688 344.679688 413.089844 351 399.171875 351 L 375.804688 351 C 361.886719 351 354.929688 344.679688 354.929688 332.035156 L 354.929688 230.136719 L 376.957031 230.136719 L 376.957031 328.972656 C 376.957031 331.015625 377.339844 332.390625 378.105469 333.089844 C 378.871094 333.792969 380.273438 334.144531 382.320313 334.144531 L 392.472656 334.144531 C 394.640625 334.144531 396.109375 333.792969 396.878906 333.089844 C 397.640625 332.390625 398.027344 331.015625 398.027344 328.972656"/>
      <path fill="var(--color6)" d="M 499.734375 328.972656 L 499.734375 252.164063 C 499.734375 250.121094 499.351563 248.746094 498.585938 248.042969 C 497.820313 247.34375 496.414063 246.992188 494.371094 246.992188 L 484.21875 246.992188 C 482.046875 246.992188 480.578125 247.34375 479.8125 248.042969 C 479.046875 248.746094 478.664063 250.121094 478.664063 252.164063 L 478.664063 328.972656 C 478.664063 331.015625 479.046875 332.390625 479.8125 333.089844 C 480.578125 333.792969 482.046875 334.144531 484.21875 334.144531 L 494.371094 334.144531 C 496.414063 334.144531 497.820313 333.792969 498.585938 333.089844 C 499.351563 332.390625 499.734375 331.015625 499.734375 328.972656 M 477.515625 230.136719 L 500.882813 230.136719 C 514.800781 230.136719 521.761719 236.457031 521.761719 249.097656 L 521.761719 332.035156 C 521.761719 344.679688 514.800781 351 500.882813 351 L 477.515625 351 C 463.59375 351 456.636719 344.679688 456.636719 332.035156 L 456.636719 249.097656 C 456.636719 236.457031 463.59375 230.136719 477.515625 230.136719"/>
      <path fill="var(--color7)" d="M 597.035156 328.972656 L 597.035156 303.113281 C 597.035156 301.074219 596.652344 299.699219 595.886719 298.996094 C 595.121094 298.292969 593.714844 297.941406 591.671875 297.941406 L 576.15625 297.941406 C 563.003906 297.941406 556.429688 291.558594 556.429688 278.789063 L 556.429688 249.097656 C 556.429688 236.457031 563.324219 230.136719 577.113281 230.136719 L 598.183594 230.136719 C 611.976563 230.136719 618.871094 236.457031 618.871094 249.097656 L 618.871094 265.953125 L 596.652344 265.953125 L 596.652344 252.164063 C 596.652344 250.121094 596.269531 248.746094 595.503906 248.042969 C 594.734375 247.34375 593.332031 246.992188 591.289063 246.992188 L 584.011719 246.992188 C 581.839844 246.992188 580.371094 247.34375 579.605469 248.042969 C 578.839844 248.746094 578.457031 250.121094 578.457031 252.164063 L 578.457031 276.488281 C 578.457031 278.535156 578.839844 279.90625 579.605469 280.609375 C 580.371094 281.308594 581.839844 281.660156 584.011719 281.660156 L 599.144531 281.660156 C 612.550781 281.660156 619.253906 287.917969 619.253906 300.429688 L 619.253906 332.035156 C 619.253906 344.679688 612.292969 351 598.375 351 L 577.691406 351 C 563.769531 351 556.808594 344.679688 556.808594 332.035156 L 556.808594 315.371094 L 578.839844 315.371094 L 578.839844 328.972656 C 578.839844 331.015625 579.222656 332.390625 579.988281 333.089844 C 580.753906 333.792969 582.222656 334.144531 584.394531 334.144531 L 591.671875 334.144531 C 593.714844 334.144531 595.121094 333.792969 595.886719 333.089844 C 596.652344 332.390625 597.035156 331.015625 597.035156 328.972656"/>
      <g clip-path="url(#clip1)" clip-rule="nonzero">
        <path fill="var(--color8)" d="M 696.636719 328.972656 L 696.636719 252.164063 C 696.636719 250.121094 696.253906 248.746094 695.488281 248.042969 C 694.722656 247.34375 693.316406 246.992188 691.273438 246.992188 L 681.121094 246.992188 C 678.949219 246.992188 677.484375 247.34375 676.71875 248.042969 C 675.949219 248.746094 675.566406 250.121094 675.566406 252.164063 L 675.566406 328.972656 C 675.566406 331.015625 675.949219 332.390625 676.71875 333.089844 C 677.484375 333.792969 678.949219 334.144531 681.121094 334.144531 L 691.273438 334.144531 C 693.316406 334.144531 694.722656 333.792969 695.488281 333.089844 C 696.253906 332.390625 696.636719 331.015625 696.636719 328.972656 M 674.417969 230.136719 L 697.785156 230.136719 C 711.703125 230.136719 718.664063 236.457031 718.664063 249.097656 L 718.664063 332.035156 C 718.664063 344.679688 711.703125 351 697.785156 351 L 674.417969 351 C 660.496094 351 653.539063 344.679688 653.539063 332.035156 L 653.539063 249.097656 C 653.539063 236.457031 660.496094 230.136719 674.417969 230.136719"/>
      </g>
    </g>
  </g>
</svg>
