<?xml version="1.0" encoding="UTF-8"?>
<svg xmlns="http://www.w3.org/2000/svg" viewBox="114 38 490 351" style="--aqua: #22e1ff; --bleu-curieux: #1d8fe1; --bleu-violet: #625eb1;">
  <g id="icon">
    <defs>
      <linearGradient id="gradient-right" x1="0.03" y2="0.67" x2="0.97" y1="0.33">
        <stop offset="3%" stop-color="var(--aqua)"/>
        <stop offset="30%" stop-color="var(--bleu-curieux)"/>
        <stop offset="75%" stop-color="var(--bleu-violet)"/>
      </linearGradient>

      <linearGradient id="gradient-left" x1="0.03" y2="0.67" x2="0.97" y1="0.33">
        <stop offset="30%" stop-color="var(--aqua)"/>
        <stop offset="80%" stop-color="var(--bleu-curieux)"/>
        <stop offset="120%" stop-color="var(--bleu-violet)"/>
      </linearGradient>

      <linearGradient id="gradient-notes" x1="0.03" y1="0.67" x2="0.97" y2="0.03">
        <stop offset="0%" stop-color="var(--bleu-curieux)"/>
        <stop offset="50%" stop-color="var(--bleu-curieux)"/>
        <stop offset="100%" stop-color="var(--bleu-violet)"/>
      </linearGradient>

      <clipPath id="clip-right">
        <path d="M 356.746094 0.0351563 C 330.621094 0.734375 307.273438 11.988281 290.65625 29.523438 C 288.679688 31.609375 286.796875 33.785156 285.011719 36.050781 L 285.683594 61.070313 C 289.34375 52.839844 294.40625 45.40625 300.609375 38.957031 C 314.796875 23.886719 334.773438 14.296875 357.113281 13.695313 C 379.453125 13.097656 399.910156 21.601563 414.984375 35.886719 C 430.058594 50.167969 439.648438 70.140625 440.246094 92.480469 L 440.25 92.574219 L 440.257813 92.851563 L 440.253906 92.757813 L 441.5625 141.5 L 441.890625 153.59375 C 442.066406 160.242188 444.449219 166.273438 448.167969 170.609375 C 452.265625 175.394531 457.886719 178.289063 464.070313 178.125 L 464.164063 178.121094 C 470.347656 177.957031 475.808594 174.761719 479.554688 169.765625 C 483.035156 165.238281 485.179688 159.082031 485 152.4375 L 481.894531 36.855469 C 481.804688 33.441406 482.734375 30.371094 484.433594 28.199219 C 485.773438 26.40625 487.496094 25.34375 489.4375 25.292969 C 491.375 25.242188 493.15625 26.207031 494.585938 27.925781 C 496.398438 30.003906 497.496094 33.019531 497.589844 36.4375 L 499.890625 122.101563 C 500.066406 128.75 502.449219 134.785156 506.167969 139.117188 C 510.269531 143.902344 515.886719 146.800781 522.070313 146.636719 L 522.164063 146.632813 C 528.351563 146.46875 533.808594 143.269531 537.644531 138.273438 C 541.128906 133.746094 543.179688 127.59375 543 120.945313 L 541.890625 79.679688 C 541.800781 76.265625 542.824219 73.1875 544.429688 71.019531 C 545.769531 69.230469 547.585938 68.164063 549.433594 68.117188 L 552.480469 68.035156 C 553.492188 68.007813 554.621094 68.621094 555.476563 69.617188 C 556.71875 71.0625 557.511719 73.164063 557.578125 75.65625 L 557.691406 79.808594 C 557.84375 85.441406 559.828125 90.5625 563.070313 94.261719 C 566.507813 98.421875 571.375 100.875 576.820313 100.730469 L 596.207031 100.210938 C 599.898438 100.109375 602.957031 96.980469 602.855469 93.195313 C 602.753906 89.410156 599.53125 86.445313 595.839844 86.546875 L 576.453125 87.066406 C 575.347656 87.097656 574.316406 86.476563 573.453125 85.390625 C 572.214844 83.949219 571.417969 81.84375 571.355469 79.441406 L 571.242188 75.289063 C 571.089844 69.65625 569.015625 64.542969 565.867188 60.839844 C 562.335938 56.683594 557.464844 54.226563 552.113281 54.371094 L 549.066406 54.453125 C 542.882813 54.621094 537.421875 57.722656 533.582031 62.722656 C 530.105469 67.34375 528.054688 73.492188 528.230469 80.046875 L 529.339844 121.3125 C 529.429688 124.726563 528.402344 127.804688 526.800781 129.972656 C 525.460938 131.761719 523.644531 132.921875 521.800781 132.972656 L 521.703125 132.972656 C 519.859375 133.023438 518.074219 131.960938 516.644531 130.246094 C 514.835938 128.167969 513.644531 125.152344 513.550781 121.734375 L 511.25 36.070313 C 511.074219 29.515625 508.695313 23.480469 504.972656 19.054688 C 500.964844 14.359375 495.347656 11.460938 489.070313 11.628906 C 482.789063 11.800781 477.335938 14.992188 473.585938 19.898438 C 470.105469 24.519531 468.054688 30.671875 468.230469 37.222656 L 471.335938 152.804688 C 471.429688 156.21875 470.402344 159.292969 468.707031 161.464844 C 467.367188 163.257813 465.644531 164.410156 463.796875 164.460938 L 463.703125 164.464844 C 461.859375 164.511719 459.980469 163.453125 458.550781 161.738281 C 456.738281 159.660156 455.644531 156.644531 455.550781 153.226563 L 453.910156 92.207031 L 453.910156 92.113281 C 453.207031 65.988281 441.957031 42.640625 424.417969 25.929688 C 407.371094 9.863281 384.441406 0 359.328125 0 C 358.46875 0 357.609375 0.0117188 356.746094 0.0351563 "/>
      </clipPath>

      <clipPath id="clip-left">
        <path d="M 254.597656 11.1875 L 254.503906 11.1875 C 248.316406 11.355469 242.859375 14.457031 239.019531 19.457031 C 235.539063 24.078125 233.492188 30.230469 233.667969 36.785156 L 236.773438 152.359375 C 236.863281 155.777344 235.929688 158.851563 234.234375 161.019531 C 232.894531 162.8125 231.074219 163.875 229.230469 163.925781 L 229.136719 163.929688 C 227.292969 163.976563 225.507813 163.011719 224.078125 161.292969 C 222.269531 159.21875 221.078125 156.203125 220.984375 152.785156 L 218.683594 67.117188 C 218.507813 60.5625 216.128906 54.53125 212.40625 50.101563 C 208.398438 45.3125 202.78125 42.511719 196.503906 42.679688 C 190.226563 42.847656 184.765625 45.949219 181.019531 50.945313 C 177.539063 55.566406 175.488281 61.71875 175.664063 68.273438 L 176.773438 109.539063 C 176.867188 112.953125 175.839844 116.03125 174.144531 118.199219 C 172.804688 119.992188 171.082031 121.144531 169.234375 121.195313 L 166.191406 121.277344 C 165.171875 121.304688 164.050781 120.6875 163.1875 119.605469 C 161.945313 118.160156 161.152344 116.054688 161.089844 113.652344 L 160.972656 109.410156 C 160.824219 103.867188 158.746094 98.753906 155.597656 94.957031 C 152.070313 90.894531 147.195313 88.34375 141.84375 88.488281 L 122.457031 89.011719 C 118.671875 89.113281 115.710938 92.332031 115.808594 96.023438 C 115.910156 99.808594 119.039063 102.773438 122.824219 102.671875 L 142.210938 102.152344 C 143.226563 102.125 144.351563 102.835938 145.210938 103.828125 C 146.453125 105.269531 147.246094 107.375 147.3125 109.777344 L 147.425781 114.019531 C 147.574219 119.558594 149.558594 124.679688 152.800781 128.472656 C 156.328125 132.535156 161.203125 135.082031 166.554688 134.9375 L 169.601563 134.855469 C 175.789063 134.691406 181.246094 131.496094 185.082031 126.496094 C 188.5625 121.96875 190.613281 115.816406 190.4375 109.171875 L 189.328125 67.90625 C 189.234375 64.492188 190.171875 61.414063 191.867188 59.246094 C 193.203125 57.453125 194.929688 56.394531 196.871094 56.34375 C 198.808594 56.289063 200.589844 57.257813 202.019531 58.972656 C 203.832031 61.050781 204.929688 64.066406 205.019531 67.484375 L 207.324219 153.152344 C 207.503906 159.800781 209.878906 165.738281 213.601563 170.167969 C 217.699219 174.949219 223.324219 177.847656 229.507813 177.683594 L 229.597656 177.679688 C 235.78125 177.511719 241.242188 174.320313 245.078125 169.320313 C 248.558594 164.699219 250.613281 158.640625 250.433594 151.992188 L 247.328125 36.417969 C 247.238281 33 248.261719 29.925781 249.867188 27.757813 C 251.203125 25.96875 253.023438 24.902344 254.871094 24.851563 L 254.964844 24.847656 C 256.808594 24.800781 258.683594 25.765625 260.113281 27.484375 C 261.835938 29.5625 263.023438 32.578125 263.113281 35.992188 L 264.757813 97.195313 C 265.460938 123.320313 276.617188 146.671875 294.246094 163.289063 C 311.785156 180 335.703125 189.886719 361.828125 189.1875 C 387.953125 188.484375 411.300781 177.324219 428.011719 159.695313 C 429.988281 157.609375 431.867188 155.433594 433.65625 153.167969 L 432.988281 128.242188 L 432.984375 128.152344 C 429.234375 136.382813 424.164063 143.816406 418.058594 150.261719 C 403.773438 165.335938 383.800781 174.921875 361.460938 175.523438 C 339.121094 176.125 318.660156 167.621094 303.679688 153.335938 C 288.613281 139.144531 279.019531 119.167969 278.421875 96.828125 L 277.101563 47.8125 L 276.777344 35.625 C 276.601563 29.070313 274.222656 23.039063 270.5 18.613281 C 266.511719 13.960938 261.097656 11.179688 255.117188 11.179688 C 254.945313 11.179688 254.769531 11.183594 254.597656 11.1875 "/>
      </clipPath>

      <clipPath id="clip-notes">
        <path d="M 389.253906 51.089844 L 382.613281 54.257813 L 379.949219 55.539063 L 376.679688 57.089844 L 374.019531 58.371094 L 370.023438 60.273438 L 367.347656 61.539063 L 364.078125 63.105469 L 361.414063 64.367188 L 357.421875 66.273438 L 354.757813 67.554688 L 351.488281 69.105469 L 348.808594 70.367188 L 342.171875 73.535156 L 333.574219 77.648438 L 333.574219 117.144531 C 331.066406 116.320313 328.21875 116.101563 325.320313 116.65625 C 317.417969 118.191406 312.058594 124.898438 313.371094 131.652344 C 314.671875 138.410156 322.136719 142.640625 330.039063 141.125 C 331.285156 140.886719 332.464844 140.515625 333.574219 140.027344 C 338.75 137.789063 342.171875 133.136719 342.171875 128.164063 L 342.171875 86.597656 L 348.808594 83.425781 L 357.421875 79.332031 L 357.421875 79.316406 L 361.414063 77.429688 L 361.414063 77.410156 L 370.023438 73.316406 L 374.019531 71.414063 L 382.613281 67.316406 L 389.253906 64.148438 L 389.253906 102.484375 C 388.710938 102.335938 388.171875 102.199219 387.601563 102.097656 C 387.566406 102.082031 387.53125 102.082031 387.5 102.082031 C 386.304688 101.796875 385.039063 101.644531 383.742188 101.644531 C 382.425781 101.644531 381.164063 101.796875 379.949219 102.097656 C 378.785156 102.351563 377.691406 102.738281 376.679688 103.242188 C 372.46875 105.300781 369.636719 109.140625 369.636719 113.539063 C 369.636719 115.039063 369.976563 116.472656 370.582031 117.804688 L 370.582031 117.820313 C 372.621094 122.269531 377.742188 125.4375 383.742188 125.4375 C 384.566406 125.4375 385.375 125.367188 386.167969 125.25 C 392.808594 124.289063 397.863281 119.421875 397.863281 113.539063 C 397.863281 113.421875 397.863281 113.304688 397.847656 113.203125 C 397.863281 113.167969 397.863281 113.136719 397.847656 113.117188 C 397.863281 113.066406 397.863281 113 397.863281 112.949219 L 397.863281 46.996094 Z M 389.253906 51.089844 "/>
      </clipPath>
    </defs>
    <g clip-path="url(#clip-right)" clip-rule="nonzero">
      <rect fill="url(#gradient-right)"
            width="397" height="111"
            transform="matrix(0.8,0,0,-1.6,285,178.2)"/>
    </g>

    <g clip-path="url(#clip-left)" clip-rule="nonzero">
      <rect fill="url(#gradient-left)"
            width="420" height="111"
            transform="matrix(0.8,0,0,-1.6,115.8,189.3)" />
    </g>

    <g clip-path="url(#clip-notes)" clip-rule="nonzero">
      <rect fill="url(#gradient-notes)"
            width="205"
            x="253"
            y="47"
            height="94.5"/>
    </g>
  </g>
</svg>
