<svg xmlns="http://www.w3.org/2000/svg" viewBox="0 0 48 48">
  <g id="root" transform="matrix(2,0,0,2,0,0)">
    <g>
      <path d="M12.35,5.22a.5.5,0,0,0-.7,0l-9,8.61a1,1,0,0,0-.29.92L3.7,21.59A3,3,0,0,0,6.64,24H17.36a3,3,0,0,0,2.94-2.41l1.36-6.84a1,1,0,0,0-.29-.92ZM12,12.77A3.23,3.23,0,1,1,8.77,16,3.23,3.23,0,0,1,12,12.77Z" style="fill: currentColor"></path>
      <path d="M2.52,11.6l9.13-8.46a.51.51,0,0,1,.71,0l9.12,8.44a1.5,1.5,0,1,0,2-2.2L14.42,1A3.5,3.5,0,0,0,9.6,1L.48,9.4A1.5,1.5,0,0,0,.4,11.52,1.55,1.55,0,0,0,2.52,11.6Z" style="fill: currentColor"></path>
    </g>
  </g>
</svg>
