<svg xmlns="http://www.w3.org/2000/svg" viewBox="0 0 48 48">
  
<g id="root" transform="matrix(2,0,0,2,0,0)"><g>
    <path d="M16.43,12.5a.29.29,0,0,0,.07-.18V2.5A2.5,2.5,0,0,0,14,0H2.5A2.5,2.5,0,0,0,0,2.5v12A2.5,2.5,0,0,0,2.5,17h9.57a.29.29,0,0,0,.18-.07ZM12.5,7a1,1,0,0,1-2,0A1.78,1.78,0,0,0,9.35,5.27.25.25,0,0,0,9,5.5V11A2.5,2.5,0,1,1,6.5,8.5h.23a.26.26,0,0,0,.19-.06A.27.27,0,0,0,7,8.26V4A1,1,0,0,1,8,3C9.56,3,12.5,3.84,12.5,7Z" style="fill: currentColor"></path>
    <path d="M12.06,20.13a.25.25,0,0,0-.42.13L11,23.4a.49.49,0,0,0,.14.45.51.51,0,0,0,.45.14l3.14-.63a.24.24,0,0,0,.19-.17.24.24,0,0,0-.06-.25Z" style="fill: currentColor"></path>
    <path d="M19.53,11.77l-6.68,6.67a.26.26,0,0,0-.07.18.24.24,0,0,0,.07.18l3.35,3.35a.25.25,0,0,0,.36,0l6.68-6.68a2.62,2.62,0,0,0-3.71-3.7Z" style="fill: currentColor"></path>
  </g></g></svg>
