<svg xmlns="http://www.w3.org/2000/svg" viewBox="0 0 48 48">
  
<g id="root" transform="matrix(2,0,0,2,0,0)"><g>
    <path d="M20,7a3,3,0,0,0-3-3H3A3,3,0,0,0,0,7V21a3,3,0,0,0,3,3H17a3,3,0,0,0,3-3ZM8.73,11.45a.25.25,0,0,0-.19.24c0,6.51,0,6.3,0,6.36A2.5,2.5,0,1,1,6,15.5h.23a.26.26,0,0,0,.19-.06.27.27,0,0,0,.08-.19V11.5a2,2,0,0,1,1.63-2l5-1.11a2,2,0,0,1,2.4,2v5.67A2.5,2.5,0,1,1,13,13.5h.23a.26.26,0,0,0,.19-.06.27.27,0,0,0,.08-.19V10.69a.26.26,0,0,0-.3-.25Z" style="fill: currentColor"></path>
    <path d="M24,3a3,3,0,0,0-3-3H4.5a1,1,0,0,0,0,2H21a1,1,0,0,1,1,1V18a1,1,0,0,0,2,0Z" style="fill: currentColor"></path>
  </g></g></svg>
